<?xml version="1.0" encoding="UTF-8"?>
<svg id="Layer_1" data-name="Layer 1" xmlns="http://www.w3.org/2000/svg" viewBox="0 0 841.89 595.28">
  <path d="M287.38,360.97v23.22c0,2.48-2.1,4.59-4.8,4.59v4.59c16.7,0,30.3-12.99,30.3-28.95v-3.44h-25.5Z"/>
  <path d="M272.98,384v-84.56c0-2.48,2.1-4.59,4.8-4.59v-4.59c-16.7,0-30.3,13-30.3,28.95v45.2c0,15.96,13.6,28.95,30.3,28.95v-4.59c-2.7,0-4.9-2.1-4.8-4.78Z"/>
  <path d="M282.58,290.45v4.59c2.6,0,4.8,2.01,4.8,4.59v45.29c0,2.48-2.1,4.59-4.8,4.59h-4.8v4.59h4.8c16.7,0,30.3-12.99,30.3-28.95v-5.83c0-15.96-13.6-28.95-30.3-28.86Z"/>
  <path d="M352.68,383.76h-.1v-155.1h-25.4v134.4c0,16.7,13.6,30.3,30.3,30.3v-4.8c-2.6,0-4.8-2.1-4.8-4.8Z"/>
  <path d="M375.83,290.62h-10.5v4.8c1.3,3.1,2,6.4,2,9.9v122.3h25.4v-120c0-9.4-7.6-17-16.9-17Z"/>
  <path d="M402.43,290.62h-4.8v4.8h4.8c2.6,0,4.8,2.1,4.8,4.8v83.6c0,2.6-2.1,4.8-4.8,4.8h-4.8v4.8h4.8c16.7,0,30.3-13.6,30.3-30.3v-42.4c0-16.7-13.6-30.3-30.3-30.1Z"/>
  <path d="M487.68,393.42h25.4v-72.7c0-16.7-13.6-30.3-30.3-30.3l-4.7.1v4.8h4.8c2.6,0,4.8,2.1,4.8,4.8v93.3Z"/>
  <polygon points="447.68 393.42 447.68 393.52 473.08 393.52 473.08 228.66 447.68 228.66 447.68 393.42"/>
  <path d="M540.47,277.82c7,0,12.7-5.7,12.7-12.7s-5.7-12.7-12.7-12.7-12.7,5.7-12.7,12.7,5.7,12.7,12.7,12.7Z"/>
  <rect x="527.77" y="290.52" width="25.4" height="103"/>
  <path d="M576.49,290.42h-10.5v4.8c1.3,3.1,2,6.4,2,9.9v88.3h25.5v-86c0-9.4-7.6-17-17-17Z"/>
  <path d="M607.99,300.12v93.3h25.5v-72.7c0-16.7-13.6-30.3-30.3-30.2h-4.8v4.8h4.8c2.6,0,4.8,2.1,4.8,4.8Z"/>
  <path d="M688.37,361.12h-.1v23.22c0,2.48-2.1,4.59-4.8,4.59v4.59c16.7,0,30.3-12.99,30.3-28.95v-3.44h-25.4Z"/>
  <path d="M678.67,388.92c-2.7,0-4.9-2.1-4.8-4.78v-84.56c0-2.48,2.1-4.59,4.8-4.59v-4.59c-16.7,0-30.3,12.99-30.3,28.95v45.2c0,15.96,13.6,28.95,30.3,28.95v-4.59Z"/>
  <path d="M713.77,325.29v-5.83c0-15.96-13.6-28.95-30.3-28.86v4.59c2.6,0,4.8,2.01,4.8,4.59v45.29c0,2.48-2.1,4.59-4.8,4.59h-4.8v4.59h4.8c16.7,0,30.3-12.99,30.3-28.95Z"/>
  <path d="M493.92,414.92c-.62-.86-1.17-1.56-1.56-2.11.55-.39,1.01-.94,1.48-1.56.39-.7.62-1.33.62-2.11,0-1.09-.39-1.95-1.17-2.57-.78-.62-1.72-.94-2.89-.94-.7,0-1.64.08-2.73.16v12.33h.86v-5.07c.94.08,1.95.08,3.04.08,1.56,2.11,2.57,3.43,2.96,3.82.39.47.78.7,1.25.94.47.16,1.01.31,1.72.31v-.55c-.86-.08-1.64-.47-2.34-1.25-.23-.16-.62-.7-1.25-1.48ZM491.04,412.43c-.78,0-1.64,0-2.5-.16v-5.85c.7-.08,1.25-.08,1.79-.08.94,0,1.79.23,2.34.7.55.47.86,1.09.86,2.03s-.31,1.64-.86,2.34c-.62.7-1.17,1.01-1.64,1.01Z"/>
  <polygon points="508.2 411.26 499.77 411.26 499.77 405.87 498.91 405.87 498.91 418.12 499.77 418.12 499.77 411.96 508.2 411.96 508.2 418.04 508.2 418.12 509.06 418.12 509.06 405.87 508.2 405.87 508.2 411.26"/>
  <path d="M517.25,412.04c-.23.47-.39.78-.47.94-.16-.23-.31-.55-.55-.94l-3.59-6.24h-1.01l4.6,7.88v4.37h.94v-4.37l4.6-7.88h-.94l-3.59,6.24Z"/>
  <polygon points="522.32 406.5 526.45 406.5 526.45 418.04 527.31 418.04 527.31 406.5 531.44 406.5 531.44 405.79 522.32 405.79 522.32 406.5"/>
  <polygon points="543.38 411.26 534.95 411.26 534.95 405.87 534.1 405.87 534.1 418.12 534.95 418.12 534.95 411.96 543.38 411.96 543.38 418.04 543.38 418.12 544.24 418.12 544.24 405.87 543.38 405.87 543.38 411.26"/>
  <path d="M559.14,405.72l-4.21,9.13c-.31.62-.55,1.01-.55,1.17-.16-.31-.31-.78-.47-1.17l-3.82-9.13h-.47l-2.03,12.4h.86l1.4-9.28.16-1.33c.08.31.23.78.47,1.25l3.59,8.66h.47l3.98-8.58c.08-.23.23-.47.31-.7.16-.23.16-.39.23-.47.08-.08.08-.16.08-.16,0,.31.08.78.16,1.33l1.33,9.28h.86l-1.87-12.4h-.47Z"/>
  <path d="M576.3,405.64c-1.72,0-3.12.55-4.29,1.79-1.17,1.25-1.72,2.73-1.72,4.52s.55,3.28,1.72,4.52c1.09,1.17,2.57,1.87,4.29,1.87s3.12-.62,4.29-1.87,1.72-2.73,1.72-4.52-.55-3.28-1.72-4.52c-1.09-1.17-2.57-1.79-4.29-1.79ZM580.12,415.94c-1.01,1.09-2.18,1.64-3.74,1.64s-2.81-.55-3.74-1.64-1.4-2.42-1.4-3.98.47-2.89,1.4-3.98,2.18-1.64,3.74-1.64,2.81.55,3.74,1.64,1.4,2.42,1.4,3.98-.47,2.89-1.4,3.98Z"/>
  <polygon points="586.13 418.04 586.91 418.04 586.91 411.72 591.9 411.72 591.9 411.02 586.91 411.02 586.91 406.5 592.37 406.5 592.37 405.79 586.13 405.79 586.13 418.04"/>
  <path d="M605.01,405.79l-5.15,12.33h.86l1.79-4.29h5.38l1.79,4.29h.94l-5.15-12.33h-.47ZM607.66,413.21h-4.91l1.87-4.6c.16-.31.31-.78.47-1.25.08-.16.08-.23.08-.23,0,.08.23.55.62,1.56l1.87,4.52Z"/>
  <polygon points="619.36 418.04 620.14 418.04 620.14 411.72 625.13 411.72 625.13 411.02 620.14 411.02 620.14 406.5 625.6 406.5 625.6 405.79 619.36 405.79 619.36 418.04"/>
  <path d="M635.12,414.92c-.62-.86-1.17-1.56-1.56-2.11.55-.39,1.01-.94,1.48-1.56.39-.7.62-1.33.62-2.11,0-1.09-.39-1.95-1.17-2.57-.78-.62-1.72-.94-2.89-.94-.7,0-1.64.08-2.73.16v12.33h.86v-5.07c.94.08,1.95.08,3.04.08,1.56,2.11,2.57,3.43,2.96,3.82.39.47.78.7,1.25.94.47.16,1.01.31,1.72.31v-.55c-.86-.08-1.64-.47-2.34-1.25-.23-.16-.62-.7-1.25-1.48ZM632.23,412.43c-.78,0-1.64,0-2.5-.16v-5.85c.7-.08,1.25-.08,1.79-.08.94,0,1.72.23,2.34.7.55.47.86,1.09.86,2.03s-.23,1.64-.86,2.34c-.62.7-1.17,1.01-1.64,1.01Z"/>
  <polygon points="641.04 411.72 645.49 411.72 645.49 411.02 641.04 411.02 641.04 406.5 645.88 406.5 645.88 405.79 640.19 405.79 640.19 418.04 646.12 418.04 646.12 417.34 641.04 417.34 641.04 411.72"/>
  <polygon points="650.17 411.72 654.62 411.72 654.62 411.02 650.17 411.02 650.17 406.5 655.01 406.5 655.01 405.79 649.31 405.79 649.31 418.04 655.24 418.04 655.24 417.34 650.17 417.34 650.17 411.72"/>
  <path d="M668.58,412.04c-.55-.39-1.09-.7-1.64-1.09-.55-.39-1.01-.78-1.4-1.25-.39-.47-.55-.94-.55-1.48,0-1.25.86-1.87,2.5-1.87.86,0,1.64.16,2.5.55l.39-.86c-.94-.39-1.87-.62-2.89-.62s-1.79.23-2.42.7c-.62.47-.94,1.17-.94,1.95,0,.62.16,1.17.55,1.72.39.55.86,1.01,1.4,1.4.55.39,1.09.78,1.64,1.17.55.39,1.01.78,1.4,1.25.39.47.55.94.55,1.48,0,.78-.23,1.33-.78,1.72-.55.39-1.25.62-2.26.62s-1.87-.23-2.73-.78l-.39.62c.86.62,1.87.94,3.12.94s2.18-.23,2.89-.78c.7-.55,1.01-1.33,1.01-2.34,0-.62-.16-1.17-.55-1.72-.39-.47-.86-.94-1.4-1.33Z"/>
  <path d="M679.74,406.58c-.7-.55-1.72-.86-2.89-.86-.86,0-1.79.08-2.73.16v12.25h.94v-11.55c.7-.08,1.25-.08,1.79-.08.94,0,1.79.16,2.34.62.55.47.86,1.17.86,2.11s-.39,1.72-1.25,2.34c-.86.55-1.79.86-2.96.86h-.16v.55h.16c1.33,0,2.5-.39,3.51-1.09,1.01-.78,1.48-1.72,1.48-2.81s-.39-1.95-1.09-2.5Z"/>
  <rect x="684.03" y="405.79" width=".86" height="12.25"/>
  <path d="M695.65,414.92c-.62-.86-1.17-1.56-1.56-2.11.55-.39,1.01-.94,1.48-1.56.39-.7.62-1.33.62-2.11,0-1.09-.39-1.95-1.17-2.57-.78-.62-1.72-.94-2.89-.94-.7,0-1.64.08-2.73.16v12.33h.86v-5.07c.94.08,1.95.08,3.04.08,1.56,2.11,2.57,3.43,2.96,3.82.39.47.78.7,1.25.94.47.16,1.01.31,1.72.31v-.55c-.86-.08-1.64-.47-2.34-1.25-.23-.16-.62-.7-1.25-1.48ZM692.76,412.43c-.78,0-1.64,0-2.5-.16v-5.85c.7-.08,1.25-.08,1.79-.08.94,0,1.72.23,2.34.7.55.47.86,1.09.86,2.03s-.23,1.64-.86,2.34c-.62.7-1.17,1.01-1.64,1.01Z"/>
  <rect x="700.72" y="405.79" width=".86" height="12.25"/>
  <polygon points="713.36 405.79 704.23 405.79 704.23 406.5 708.37 406.5 708.37 406.5 708.37 418.04 709.22 418.04 709.22 406.5 713.36 406.5 713.36 405.79"/>
  <rect x="712.66" y="417.11" width=".94" height=".94"/>
  <path d="M151.08,189.58c21.3-6.7,35.3,6.5,56.4-2.1,6.3-2.5,15.7-8,15-12.4-1.1-6.6-25.1-9.8-45-5.4-4.1.9-16.1,3.9-28.6,13.1-10.1,7.4-16.3,15.7-19.8,21.1,8.6-9.1,16.7-12.7,22-14.3Z"/>
  <path d="M232.88,248.53c0-35.5-47.89-33.47-47.89-33.47,24.56,3.3,23.97,33.68,23.97,33.68v65.2s.03,53.35.03,53.35c.04.98.53,16.08-7.79,21.5-1.49.97-4.51,2.46-8.25,3.46-3.07.78-5.65.73-5.65.73h-34.62v-153.47c0-13.56-10.99-24.55-24.55-24.55v178.73h59.27s.03,0,.08,0c2.82-.04,5.6-.17,8.36-.72,15.99-2.32,24.87-10.39,24.87-10.39,12.27-11.26,12.24-27.82,12.18-30.88v-103.16Z"/>
</svg>