<?xml version="1.0" encoding="UTF-8"?>
<svg id="Layer_1" xmlns="http://www.w3.org/2000/svg" version="1.1" viewBox="0 0 841.9 595.3">
  <!-- Generator: Adobe Illustrator 29.1.0, SVG Export Plug-In . SVG Version: 2.1.0 Build 142)  -->
  <defs>
    <style>
      .st0 {
        fill: #fff;
      }
    </style>
  </defs>
  <path class="st0" d="M287.4,361v23.2c0,2.5-2.1,4.6-4.8,4.6v4.6c16.7,0,30.3-13,30.3-29v-3.4h-25.5Z"/>
  <path class="st0" d="M273,384v-84.6c0-2.5,2.1-4.6,4.8-4.6v-4.6c-16.7,0-30.3,13-30.3,29v45.2c0,16,13.6,29,30.3,29v-4.6c-2.7,0-4.9-2.1-4.8-4.8Z"/>
  <path class="st0" d="M282.6,290.5v4.6c2.6,0,4.8,2,4.8,4.6v45.3c0,2.5-2.1,4.6-4.8,4.6h-4.8v4.6h4.8c16.7,0,30.3-13,30.3-29v-5.8c0-16-13.6-29-30.3-28.9Z"/>
  <path class="st0" d="M352.7,383.8h-.1v-155.1h-25.4v134.4c0,16.7,13.6,30.3,30.3,30.3v-4.8c-2.6,0-4.8-2.1-4.8-4.8Z"/>
  <path class="st0" d="M375.8,290.6h-10.5v4.8c1.3,3.1,2,6.4,2,9.9v122.3h25.4v-120c0-9.4-7.6-17-16.9-17Z"/>
  <path class="st0" d="M402.4,290.6h-4.8v4.8h4.8c2.6,0,4.8,2.1,4.8,4.8v83.6c0,2.6-2.1,4.8-4.8,4.8h-4.8v4.8h4.8c16.7,0,30.3-13.6,30.3-30.3v-42.4c0-16.7-13.6-30.3-30.3-30.1Z"/>
  <path class="st0" d="M487.7,393.4h25.4v-72.7c0-16.7-13.6-30.3-30.3-30.3h-4.7v4.9h4.8c2.6,0,4.8,2.1,4.8,4.8v93.3Z"/>
  <polygon class="st0" points="447.7 393.4 447.7 393.5 473.1 393.5 473.1 228.7 447.7 228.7 447.7 393.4"/>
  <path class="st0" d="M540.5,277.8c7,0,12.7-5.7,12.7-12.7s-5.7-12.7-12.7-12.7-12.7,5.7-12.7,12.7,5.7,12.7,12.7,12.7Z"/>
  <rect class="st0" x="527.8" y="290.5" width="25.4" height="103"/>
  <path class="st0" d="M576.5,290.4h-10.5v4.8c1.3,3.1,2,6.4,2,9.9v88.3h25.5v-86c0-9.4-7.6-17-17-17Z"/>
  <path class="st0" d="M608,300.1v93.3h25.5v-72.7c0-16.7-13.6-30.3-30.3-30.2h-4.8v4.8h4.8c2.6,0,4.8,2.1,4.8,4.8Z"/>
  <path class="st0" d="M688.4,361.1h0v23.2c0,2.5-2.1,4.6-4.8,4.6v4.6c16.7,0,30.3-13,30.3-29v-3.4h-25.4Z"/>
  <path class="st0" d="M678.7,388.9c-2.7,0-4.9-2.1-4.8-4.8v-84.6c0-2.5,2.1-4.6,4.8-4.6v-4.6c-16.7,0-30.3,13-30.3,29v45.2c0,16,13.6,29,30.3,29v-4.6Z"/>
  <path class="st0" d="M713.8,325.3v-5.8c0-16-13.6-29-30.3-28.9v4.6c2.6,0,4.8,2,4.8,4.6v45.3c0,2.5-2.1,4.6-4.8,4.6h-4.8v4.6h4.8c16.7,0,30.3-13,30.3-29Z"/>
  <path class="st0" d="M493.9,414.9c-.6-.9-1.2-1.6-1.6-2.1.5-.4,1-.9,1.5-1.6.4-.7.6-1.3.6-2.1s-.4-2-1.2-2.6c-.8-.6-1.7-.9-2.9-.9s-1.6,0-2.7.2v12.2h0c0,0,.9,0,.9,0v-5.1c.9,0,2,0,3,0,1.6,2.1,2.6,3.4,3,3.8.4.5.8.7,1.2.9.5.2,1,.3,1.7.3v-.5c-.9,0-1.6-.5-2.3-1.2-.2-.2-.6-.7-1.2-1.5ZM491,412.4c-.8,0-1.6,0-2.5-.2v-5.9c.7,0,1.2,0,1.8,0,.9,0,1.8.2,2.3.7.5.5.9,1.1.9,2s-.3,1.6-.9,2.3c-.6.7-1.2,1-1.6,1Z"/>
  <polygon class="st0" points="508.2 411.3 499.8 411.3 499.8 405.9 498.9 405.9 498.9 418.1 499.8 418.1 499.8 412 508.2 412 508.2 418 508.2 418.1 509.1 418.1 509.1 405.9 508.2 405.9 508.2 411.3"/>
  <path class="st0" d="M517.2,412c-.2.5-.4.8-.5.9-.2-.2-.3-.5-.5-.9l-3.6-6.2h-1l4.6,7.9v4.4h.9v-4.4l4.6-7.9h-.9l-3.6,6.2Z"/>
  <polygon class="st0" points="522.3 406.5 526.5 406.5 526.5 418 527.3 418 527.3 406.5 531.4 406.5 531.4 405.8 522.3 405.8 522.3 406.5"/>
  <polygon class="st0" points="543.4 411.3 535 411.3 535 405.9 534.1 405.9 534.1 418.1 535 418.1 535 412 543.4 412 543.4 418 543.4 418.1 544.2 418.1 544.2 405.9 543.4 405.9 543.4 411.3"/>
  <path class="st0" d="M559.1,405.7l-4.2,9.1c-.3.6-.5,1-.5,1.2-.2-.3-.3-.8-.5-1.2l-3.8-9.1h-.5l-2,12.4h.9l1.4-9.3.2-1.3c0,.3.2.8.5,1.2l3.6,8.7h.5l4-8.6c0-.2.2-.5.3-.7.2-.2.2-.4.2-.5,0,0,0-.2,0-.2,0,.3,0,.8.2,1.3l1.3,9.3h.9l-1.9-12.4h-.5Z"/>
  <path class="st0" d="M576.3,405.6c-1.7,0-3.1.5-4.3,1.8-1.2,1.2-1.7,2.7-1.7,4.5s.5,3.3,1.7,4.5c1.1,1.2,2.6,1.9,4.3,1.9s3.1-.6,4.3-1.9,1.7-2.7,1.7-4.5-.5-3.3-1.7-4.5c-1.1-1.2-2.6-1.8-4.3-1.8ZM580.1,415.9c-1,1.1-2.2,1.6-3.7,1.6s-2.8-.5-3.7-1.6-1.4-2.4-1.4-4,.5-2.9,1.4-4,2.2-1.6,3.7-1.6,2.8.5,3.7,1.6,1.4,2.4,1.4,4-.5,2.9-1.4,4Z"/>
  <polygon class="st0" points="586.1 418 586.9 418 586.9 411.7 591.9 411.7 591.9 411 586.9 411 586.9 406.5 592.4 406.5 592.4 405.8 586.1 405.8 586.1 418"/>
  <path class="st0" d="M605,405.8l-5.1,12.3h.9l1.8-4.3h5.4l1.8,4.3h.9l-5.1-12.3h-.5ZM607.7,413.2h-4.9l1.9-4.6c.2-.3.3-.8.5-1.2,0-.2,0-.2,0-.2,0,0,.2.5.6,1.6l1.9,4.5Z"/>
  <polygon class="st0" points="619.4 418 620.1 418 620.1 411.7 625.1 411.7 625.1 411 620.1 411 620.1 406.5 625.6 406.5 625.6 405.8 619.4 405.8 619.4 418"/>
  <path class="st0" d="M635.1,414.9c-.6-.9-1.2-1.6-1.6-2.1.5-.4,1-.9,1.5-1.6.4-.7.6-1.3.6-2.1s-.4-2-1.2-2.6c-.8-.6-1.7-.9-2.9-.9s-1.6,0-2.7.2v12.2h0c0,0,.9,0,.9,0v-5.1c.9,0,2,0,3,0,1.6,2.1,2.6,3.4,3,3.8.4.5.8.7,1.2.9.5.2,1,.3,1.7.3v-.5c-.9,0-1.6-.5-2.3-1.2-.2-.2-.6-.7-1.2-1.5ZM632.2,412.4c-.8,0-1.6,0-2.5-.2v-5.9c.7,0,1.2,0,1.8,0,.9,0,1.7.2,2.3.7.5.5.9,1.1.9,2s-.2,1.6-.9,2.3c-.6.7-1.2,1-1.6,1Z"/>
  <polygon class="st0" points="641 411.7 645.5 411.7 645.5 411 641 411 641 406.5 645.9 406.5 645.9 405.8 640.2 405.8 640.2 418 646.1 418 646.1 417.3 641 417.3 641 411.7"/>
  <polygon class="st0" points="650.2 411.7 654.6 411.7 654.6 411 650.2 411 650.2 406.5 655 406.5 655 405.8 649.3 405.8 649.3 418 655.2 418 655.2 417.3 650.2 417.3 650.2 411.7"/>
  <path class="st0" d="M668.6,412c-.5-.4-1.1-.7-1.6-1.1-.5-.4-1-.8-1.4-1.2-.4-.5-.5-.9-.5-1.5,0-1.2.9-1.9,2.5-1.9s1.6.2,2.5.5l.4-.9c-.9-.4-1.9-.6-2.9-.6s-1.8.2-2.4.7c-.6.5-.9,1.2-.9,2s.2,1.2.5,1.7c.4.5.9,1,1.4,1.4.5.4,1.1.8,1.6,1.2.5.4,1,.8,1.4,1.2.4.5.5.9.5,1.5,0,.8-.2,1.3-.8,1.7-.5.4-1.2.6-2.3.6s-1.9-.2-2.7-.8l-.4.6c.9.6,1.9.9,3.1.9s2.2-.2,2.9-.8c.7-.5,1-1.3,1-2.3s-.2-1.2-.5-1.7c-.4-.5-.9-.9-1.4-1.3Z"/>
  <path class="st0" d="M679.7,406.6c-.7-.5-1.7-.9-2.9-.9s-1.8,0-2.7.2v12.2h0c0,0,.9,0,.9,0v-11.5c.7,0,1.2,0,1.8,0,.9,0,1.8.2,2.3.6.5.5.9,1.2.9,2.1s-.4,1.7-1.2,2.3c-.9.5-1.8.9-3,.9h-.2v.5h.2c1.3,0,2.5-.4,3.5-1.1,1-.8,1.5-1.7,1.5-2.8s-.4-2-1.1-2.5Z"/>
  <rect class="st0" x="684" y="405.8" width=".9" height="12.2"/>
  <path class="st0" d="M695.7,414.9c-.6-.9-1.2-1.6-1.6-2.1.5-.4,1-.9,1.5-1.6.4-.7.6-1.3.6-2.1s-.4-2-1.2-2.6c-.8-.6-1.7-.9-2.9-.9s-1.6,0-2.7.2v12.2h0c0,0,.9,0,.9,0v-5.1c.9,0,2,0,3,0,1.6,2.1,2.6,3.4,3,3.8.4.5.8.7,1.2.9.5.2,1,.3,1.7.3v-.5c-.9,0-1.6-.5-2.3-1.2-.2-.2-.6-.7-1.2-1.5ZM692.8,412.4c-.8,0-1.6,0-2.5-.2v-5.9c.7,0,1.2,0,1.8,0,.9,0,1.7.2,2.3.7.5.5.9,1.1.9,2s-.2,1.6-.9,2.3c-.6.7-1.2,1-1.6,1Z"/>
  <rect class="st0" x="700.7" y="405.8" width=".9" height="12.2"/>
  <polygon class="st0" points="713.4 405.8 704.2 405.8 704.2 406.5 708.4 406.5 708.4 406.5 708.4 418 709.2 418 709.2 406.5 713.4 406.5 713.4 405.8"/>
  <rect class="st0" x="712.7" y="417.1" width=".9" height=".9"/>
  <path class="st0" d="M151.1,189.6c21.3-6.7,35.3,6.5,56.4-2.1,6.3-2.5,15.7-8,15-12.4-1.1-6.6-25.1-9.8-45-5.4-4.1.9-16.1,3.9-28.6,13.1-10.1,7.4-16.3,15.7-19.8,21.1,8.6-9.1,16.7-12.7,22-14.3Z"/>
  <path class="st0" d="M232.9,248.5c0-35.5-47.9-33.5-47.9-33.5,24.6,3.3,24,33.7,24,33.7v65.2s0,53.3,0,53.3c0,1,.5,16.1-7.8,21.5-1.5,1-4.5,2.5-8.3,3.5-3.1.8-5.7.7-5.7.7h-34.6v-153.5c0-13.6-11-24.6-24.6-24.6v178.7h59.3s0,0,0,0c2.8,0,5.6-.2,8.4-.7,16-2.3,24.9-10.4,24.9-10.4,12.3-11.3,12.2-27.8,12.2-30.9v-103.2Z"/>
</svg>